<svg width="21" height="20" viewBox="0 0 21 20" fill="none" xmlns="http://www.w3.org/2000/svg">
<path fill-rule="evenodd" clip-rule="evenodd" d="M20.7998 0H0.799805V20H20.7998V0ZM8.69573 3.84848C8.69573 3.38889 9.06695 3 9.54424 3C12.7085 3 15.2717 5.56313 15.2717 8.70958C15.2717 9.16918 14.9004 9.55807 14.4232 9.55807C13.9635 9.55807 13.5746 9.18686 13.5746 8.70958C13.5746 6.48232 11.7716 4.67929 9.54424 4.67929C9.06695 4.67929 8.69573 4.30808 8.69573 3.84848ZM16.9512 7.8612C17.4108 7.8612 17.7997 8.23241 17.7997 8.70968C17.7997 11.8561 15.2365 14.4193 12.0722 14.4193C11.6126 14.4193 11.2237 14.0481 11.2237 13.5708C11.2237 13.1112 11.5949 12.7223 12.0722 12.7223C14.2996 12.7223 16.1026 10.9193 16.1026 8.69201C16.1026 8.25009 16.4915 7.8612 16.9512 7.8612ZM12.9214 16.1515C12.9214 16.6111 12.5502 17 12.0729 17C8.90867 17 6.34547 14.4369 6.34547 11.2904C6.34547 10.8308 6.71669 10.4419 7.19397 10.4419C7.65358 10.4419 8.04248 10.8131 8.04248 11.2904C8.04248 13.5177 9.84556 15.3207 12.0729 15.3207C12.5502 15.3207 12.9214 15.6919 12.9214 16.1515ZM4.6482 12.1388C4.18859 12.1388 3.79969 11.7676 3.79969 11.2903C3.79969 8.14386 6.36289 5.58073 9.52712 5.58073C9.98673 5.58073 10.3756 5.95195 10.3756 6.42922C10.3756 6.88881 10.0044 7.2777 9.52712 7.2777C7.29979 7.2777 5.49671 9.08073 5.49671 11.308C5.47903 11.7499 5.10781 12.1388 4.6482 12.1388Z" fill="#9D9D9D"/>
</svg>
