<svg width="21" height="20" viewBox="0 0 21 20" fill="none" xmlns="http://www.w3.org/2000/svg">
<path fill-rule="evenodd" clip-rule="evenodd" d="M20.7988 0H0.798828V20H20.7988V0ZM13.0029 16.275C13.002 16.3247 13.0045 16.3744 13.0104 16.4236C13.0104 16.4236 8.56316 16.4378 8.56814 16.3996C8.57313 16.3603 8.57562 16.3329 8.57562 16.3166V14.6548C8.20278 14.6985 7.87037 14.6958 7.57838 14.6466C7.28638 14.5969 7.0573 14.5193 6.89108 14.415C6.72487 14.3101 6.57862 14.1806 6.45284 14.026C6.32656 13.872 6.24072 13.731 6.1958 13.6043C6.14869 13.4729 6.10343 13.3407 6.06003 13.2077C6.0146 13.07 5.98666 12.9897 5.97667 12.9679C5.88584 12.8024 5.75006 12.6511 5.56889 12.5129C5.3872 12.3752 5.25145 12.2648 5.16061 12.1823C5.07027 12.0993 5.05979 12.0196 5.13066 11.9425C5.63427 11.6557 6.20328 12.0196 6.83817 13.0334C7.18057 13.5961 7.78002 13.7616 8.63652 13.5306C8.7316 13.0889 8.94134 12.6867 9.24046 12.3724C8.07201 12.1408 7.20553 11.6667 6.64152 10.9499C6.0775 10.2338 5.7955 9.36247 5.7955 8.3371C5.7955 7.37786 6.07252 6.54588 6.62653 5.84009C6.40493 5.12338 6.43488 4.36844 6.71688 3.5747C7.00938 3.55229 7.33679 3.61567 7.69917 3.7648C8.06203 3.91339 8.31607 4.04012 8.46234 4.145C8.60808 4.2499 8.73685 4.34605 8.84765 4.43453C9.42215 4.25809 10.069 4.16959 10.7898 4.16959C11.5095 4.16959 12.1619 4.25809 12.7463 4.43453C12.8771 4.33512 13.0233 4.23022 13.1841 4.11987C13.3458 4.01007 13.5924 3.89153 13.9248 3.7648C14.2572 3.63807 14.5641 3.58562 14.8467 3.60748C15.1182 4.39029 15.1536 5.13432 14.952 5.84011C15.5165 6.54534 15.7985 7.37786 15.7985 8.33712C15.7985 9.36249 15.511 10.2365 14.937 10.9587C14.363 11.6809 13.4965 12.1518 12.3381 12.3724C12.7713 12.8466 12.9879 13.4202 12.9879 14.0921V16.2253C12.9897 16.2428 12.9948 16.2598 13.0029 16.275Z" fill="#9D9D9D"/>
</svg>
