<svg width="21" height="20" viewBox="0 0 21 20" fill="none" xmlns="http://www.w3.org/2000/svg">
<path fill-rule="evenodd" clip-rule="evenodd" d="M0.799805 20V0H20.7998V20H0.799805ZM16.3453 5.76228L17.4167 4.73549V4.51228H13.7024L11.0551 11.115L8.04619 4.50781H4.14888V4.73549L5.40334 6.24888C5.52834 6.36049 5.59084 6.52121 5.57298 6.68638V12.6239C5.6087 12.8382 5.54173 13.0569 5.38995 13.2132L3.97924 14.923V15.1507H7.98815V14.923L6.57744 13.2132C6.42566 13.0569 6.34977 12.8382 6.38102 12.6239V7.48996L9.8944 15.1507H10.3006L13.3185 7.48996V13.6016C13.3185 13.7623 13.3185 13.7935 13.2114 13.9007L12.1265 14.9542V15.173H17.3944V14.9453L16.3453 13.9185C16.2515 13.8516 16.2069 13.7355 16.2247 13.6194V6.06138C16.2069 5.94978 16.2515 5.83371 16.3453 5.76228Z" fill="#9D9D9D"/>
</svg>
