<svg width="21" height="20" viewBox="0 0 21 20" fill="none" xmlns="http://www.w3.org/2000/svg">
<path fill-rule="evenodd" clip-rule="evenodd" d="M20.7998 0H0.799805V20H20.7998V0ZM12.7079 5.60819L13.0179 5.56819L13.0179 5.5682H13.0287V5.5582C13.7699 5.5191 14.4907 5.80803 14.9996 6.34821C15.4541 6.27947 15.8937 6.13407 16.2996 5.9182L16.6096 5.7482C16.4596 6.20821 16.1796 6.61821 15.7996 6.92821C15.7096 7.00821 15.6196 7.07822 15.5196 7.12822C16.0096 7.06913 16.4882 6.9377 16.9396 6.73821C16.7088 7.10697 16.422 7.43759 16.0896 7.71822L15.6896 8.04823C15.7096 8.58823 15.6696 9.13824 15.5696 9.66825C14.9387 12.4983 13.2787 14.4183 10.6579 15.2383C9.49784 15.5683 8.26699 15.6083 7.08698 15.3583C6.58697 15.2383 6.09696 15.0783 5.61696 14.8783C5.36695 14.7783 5.13695 14.6583 4.90695 14.5183L4.68694 14.3883C4.95165 14.4282 5.22 14.4383 5.48695 14.4183C5.60253 14.4005 5.71416 14.3926 5.82272 14.3849C5.95836 14.3753 6.0892 14.3661 6.21696 14.3383C6.74142 14.2302 7.24693 14.0448 7.71699 13.7883C7.9609 13.6702 8.1893 13.5224 8.397 13.3483C8.14699 13.3483 7.89699 13.3083 7.65699 13.2183C6.90614 12.9583 6.31613 12.3683 6.06613 11.6083C6.31613 11.6383 7.02614 11.6983 7.18615 11.5583C6.88614 11.5183 6.60614 11.4083 6.36613 11.2283C5.6076 10.778 5.15515 9.94979 5.18612 9.06824L5.45612 9.16824C5.62662 9.23791 5.8044 9.28823 5.98613 9.31824C6.09488 9.35784 6.21213 9.36819 6.32613 9.34824C6.26745 9.28505 6.19451 9.23001 6.12018 9.17392C6.02984 9.10574 5.93745 9.03602 5.86613 8.94824C5.32497 8.31786 5.11694 7.46718 5.30612 6.65821C5.36839 6.43104 5.45911 6.21264 5.57612 6.0082C5.64481 6.10471 5.72177 6.19505 5.80613 6.2782C6.02476 6.54869 6.27329 6.79358 6.54697 7.00821C7.43675 7.73731 8.4851 8.24764 9.60784 8.49823C9.96784 8.59823 10.3478 8.64823 10.7279 8.64823C10.6279 8.26822 10.6279 7.85822 10.7279 7.46822C10.9115 6.71414 11.4367 6.08907 12.1479 5.7782C12.3279 5.70819 12.5179 5.64819 12.7079 5.60819Z" fill="#9D9D9D"/>
</svg>
